HIERARCHY
ROOT joint_Root
{
	OFFSET 0.0 0.0 0.0
	CHANNELS 6 Xposition Yposition Zposition Zrotation Xrotation Yrotation 
	JOINT Hips
	{
		OFFSET 4.5925 91.4895 -427.239
		CHANNELS 6 Xposition Yposition Zposition Zrotation Xrotation Yrotation 
		JOINT Spine
		{
			OFFSET 15.7357 0.0 0.0
			CHANNELS 6 Xposition Yposition Zposition Zrotation Xrotation Yrotation 
			JOINT Chest
			{
				OFFSET 8.98455 -0.406207 0.0
				CHANNELS 6 Xposition Yposition Zposition Zrotation Xrotation Yrotation 
				JOINT Neck
				{
					OFFSET 16.3773 0.0 0.0
					CHANNELS 6 Xposition Yposition Zposition Zrotation Xrotation Yrotation 
					JOINT Head
					{
						OFFSET 6.45672 0.0 0.0
						CHANNELS 6 Xposition Yposition Zposition Zrotation Xrotation Yrotation 
						End Site
						{
							OFFSET 0.0 0.0 0.0
						}
					}
				}
				JOINT Shoulder_L
				{
					OFFSET 12.9942 -0.242716 4.98039
					CHANNELS 6 Xposition Yposition Zposition Zrotation Xrotation Yrotation 
					JOINT UpperArm_L
					{
						OFFSET 5.34809 0.0 0.0
						CHANNELS 6 Xposition Yposition Zposition Zrotation Xrotation Yrotation 
						JOINT LowerArm_L
						{
							OFFSET 24.3286 1.87007e-05 0.0
							CHANNELS 6 Xposition Yposition Zposition Zrotation Xrotation Yrotation 
							JOINT Hand_L
							{
								OFFSET 22.2916 0.0 0.0
								CHANNELS 6 Xposition Yposition Zposition Zrotation Xrotation Yrotation 
								End Site
								{
									OFFSET 0.0 0.0 0.0
								}
							}
						}
					}
				}
				JOINT Shoulder_R
				{
					OFFSET 12.9945 -0.242716 -4.98039
					CHANNELS 6 Xposition Yposition Zposition Zrotation Xrotation Yrotation 
					JOINT UpperArm_R
					{
						OFFSET -5.34813 0.0 0.0
						CHANNELS 6 Xposition Yposition Zposition Zrotation Xrotation Yrotation 
						JOINT LowerArm_R
						{
							OFFSET -24.3289 0.000322201 0.0
							CHANNELS 6 Xposition Yposition Zposition Zrotation Xrotation Yrotation 
							JOINT Hand_R
							{
								OFFSET -22.2915 -0.000108084 0.0
								CHANNELS 6 Xposition Yposition Zposition Zrotation Xrotation Yrotation 
								End Site
								{
									OFFSET 0.0 0.0 0.0
								}
							}
						}
					}
				}
			}
		}
		JOINT UpperLeg_L
		{
			OFFSET -2.19248 -6.46944 0.0
			CHANNELS 6 Xposition Yposition Zposition Zrotation Xrotation Yrotation 
			JOINT LowerLeg_L
			{
				OFFSET 39.0811 0.0 -1.23785e-05
				CHANNELS 6 Xposition Yposition Zposition Zrotation Xrotation Yrotation 
				JOINT Foot_L
				{
					OFFSET 40.9854 0.0 -1.26872e-05
					CHANNELS 6 Xposition Yposition Zposition Zrotation Xrotation Yrotation 
					JOINT Toes_L
					{
						OFFSET 11.7543 0.0 0.0
						CHANNELS 6 Xposition Yposition Zposition Zrotation Xrotation Yrotation 
						End Site
						{
							OFFSET 0.0 0.0 0.0
						}
					}
				}
			}
		}
		JOINT UpperLeg_R
		{
			OFFSET -2.19251 6.46944 0.0
			CHANNELS 6 Xposition Yposition Zposition Zrotation Xrotation Yrotation 
			JOINT LowerLeg_R
			{
				OFFSET -39.0811 -0.00228153 -0.0401928
				CHANNELS 6 Xposition Yposition Zposition Zrotation Xrotation Yrotation 
				JOINT Foot_R
				{
					OFFSET -40.9854 0.0 0.0
					CHANNELS 6 Xposition Yposition Zposition Zrotation Xrotation Yrotation 
					JOINT Toes_R
					{
						OFFSET -11.7543 0.0 0.0
						CHANNELS 6 Xposition Yposition Zposition Zrotation Xrotation Yrotation 
						End Site
						{
							OFFSET 0.0 0.0 0.0
						}
					}
				}
			}
		}
	}
}
MOTION
Frames:	7
Frame Time:	0.0333333
0.000000 0.000000 0.000000 0.000000 0.000000 -0.000000 0.730408 78.727800 87.367700 -84.376800 9.806360 173.990000 15.735700 0.000005 -0.000001 96.944200 80.913900 -92.871400 8.984550 -0.406207 -0.000000 10.210600 2.269800 7.937790 16.377300 -0.000001 -0.000001 -1.896110 1.851400 1.816630 6.456720 -0.000001 -0.000000 -4.987520 4.085810 -4.332660 12.994200 -0.242716 4.980390 -90.323000 0.923672 -70.723500 5.348090 -0.000007 -0.000001 -66.261900 21.363200 12.681800 24.328600 0.000019 0.000005 15.435000 27.018900 -31.291200 22.291600 -0.000001 0.000005 2.948790 5.567220 -9.546660 12.994500 -0.242716 -4.980390 88.698900 8.069360 -80.809500 -5.348130 -0.000001 -0.000004 -51.717100 8.689990 -35.989900 -24.328900 0.000322 -0.000009 -12.236900 -4.063140 -71.948500 -22.291500 -0.000108 -0.000004 17.923900 5.632990 -13.566500 -2.192480 -6.469440 -0.000000 -178.680000 -10.596600 -49.751400 39.081100 -0.000007 -0.000012 -0.272873 -0.267481 134.430000 40.985400 -0.000006 -0.000013 -2.872390 1.762830 -3.362790 11.754300 -0.000000 0.000003 -0.002690 -0.037054 -18.083600 -2.192510 6.469440 -0.000001 -173.716000 5.467460 150.893000 -39.081100 -0.002282 -0.040193 -1.334770 0.555037 67.472800 -40.985400 0.000008 0.000006 3.871350 1.087030 -93.847500 -11.754300 -0.000006 -0.000006 -0.004791 -0.059429 -18.991000
0.000000 0.000000 0.000000 0.000000 0.000000 -0.000000 -0.393685 80.401900 75.457100 -88.325300 12.864200 173.336000 15.735700 0.000005 -0.000001 108.118000 81.239200 -106.090000 8.984550 -0.406207 -0.000000 8.822720 5.439750 3.636130 16.377300 -0.000001 -0.000001 -1.214120 1.108660 2.396460 6.456720 -0.000001 -0.000000 -4.687350 1.268210 -3.116100 12.994200 -0.242716 4.980390 -90.059700 0.152357 -68.437000 5.348090 -0.000007 -0.000001 -63.964600 20.505700 18.401800 24.328600 0.000019 0.000005 12.876500 20.656300 -32.950600 22.291600 -0.000001 0.000005 5.373150 5.565370 -9.454160 12.994500 -0.242716 -4.980390 89.093600 6.008470 -81.406100 -5.348130 -0.000001 -0.000004 -49.508000 6.930350 -41.756800 -24.328900 0.000322 -0.000009 -7.477690 -1.139900 -81.388200 -22.291500 -0.000108 -0.000004 18.250200 5.619250 -12.571200 -2.192480 -6.469440 -0.000000 174.895000 -7.941490 -57.949400 39.081100 -0.000007 -0.000012 -0.310871 -0.229707 126.464000 40.985400 -0.000006 -0.000013 2.023940 1.077150 -22.646000 11.754300 -0.000000 0.000003 -0.001810 -0.026323 -17.647100 -2.192510 6.469440 -0.000001 178.442000 7.432810 163.705000 -39.081100 -0.002282 -0.040193 0.093507 -0.058332 57.135700 -40.985400 0.000008 0.000006 8.231080 3.675250 -97.490400 -11.754300 -0.000006 -0.000006 -0.006920 -0.078971 -19.787900
0.000000 0.000000 0.000000 0.000000 0.000000 -0.000000 -1.493810 84.008300 63.033000 -92.783900 14.736100 171.486000 15.735700 0.000005 -0.000001 118.843000 81.961100 -119.187000 8.984550 -0.406207 -0.000000 6.385610 7.737500 -1.121480 16.377300 -0.000001 -0.000001 -0.346788 0.312339 2.748530 6.456720 -0.000001 -0.000000 -4.061580 -1.161660 -1.513670 12.994200 -0.242716 4.980390 -89.185100 -1.914300 -66.947000 5.348090 -0.000007 -0.000001 -62.269900 15.623400 22.204200 24.328600 0.000019 0.000005 11.965700 17.616300 -35.000700 22.291600 -0.000001 0.000005 6.609660 5.562200 -9.297700 12.994500 -0.242716 -4.980390 89.463500 3.471170 -81.206500 -5.348130 -0.000001 -0.000004 -49.460500 6.940700 -41.931400 -24.328900 0.000322 -0.000009 -9.023470 -0.220882 -88.601800 -22.291500 -0.000108 -0.000004 16.994500 5.595550 -11.032300 -2.192480 -6.469440 -0.000000 169.909000 -4.843400 -61.617600 39.081100 -0.000007 -0.000012 -0.029498 -0.011244 110.885000 40.985400 -0.000006 -0.000013 7.485560 -5.282630 -43.783100 11.754300 -0.000000 0.000003 -0.002062 -0.029497 -17.776200 -2.192510 6.469440 -0.000001 170.424000 6.351400 173.744000 -39.081100 -0.002282 -0.040193 0.029503 -0.027639 43.506000 -40.985400 0.000008 0.000006 7.132600 6.661590 -81.724600 -11.754300 -0.000006 -0.000006 -0.074220 -0.375454 -32.136900
0.000000 0.000000 0.000000 0.000000 0.000000 -0.000000 -2.125970 87.962800 51.086700 -94.341600 15.030100 169.152000 15.735700 0.000005 -0.000001 126.805000 82.643100 -128.564000 8.984550 -0.406207 -0.000000 4.194970 8.856520 -3.843580 16.377300 -0.000001 -0.000001 0.368173 -0.396961 2.895920 6.456720 -0.000001 -0.000000 -3.701370 -2.751770 -0.304409 12.994200 -0.242716 4.980390 -88.291700 -3.851550 -66.059900 5.348090 -0.000007 -0.000001 -61.182700 9.920650 24.968500 24.328600 0.000019 0.000005 14.315300 18.887600 -38.246700 22.291600 -0.000001 0.000005 6.528810 5.543530 -8.409550 12.994500 -0.242716 -4.980390 89.651000 2.137780 -80.725100 -5.348130 -0.000001 -0.000004 -49.810000 8.536850 -41.083400 -24.328900 0.000322 -0.000009 -8.197940 0.206222 -91.430600 -22.291500 -0.000108 -0.000004 14.511200 5.575220 -9.956460 -2.192480 -6.469440 -0.000000 169.936000 -2.147910 -62.057600 39.081100 -0.000007 -0.000012 0.156018 0.001016 90.369800 40.985400 -0.000006 -0.000013 8.753920 -8.172800 -55.588500 11.754300 -0.000000 0.000003 -0.002785 -0.038148 -18.128100 -2.192510 6.469440 -0.000001 166.060000 10.044400 179.428000 -39.081100 -0.002282 -0.040193 0.076387 -0.108581 33.947300 -40.985400 0.000008 0.000006 7.865160 11.584800 -56.936900 -11.754300 -0.000006 -0.000006 -0.285099 -0.770665 -50.375100
0.000000 0.000000 0.000000 0.000000 0.000000 -0.000000 -2.091630 90.806800 39.021100 -92.095300 13.630300 170.646000 15.735700 0.000005 -0.000001 124.764000 82.288000 -126.283000 8.984550 -0.406207 -0.000000 5.071790 8.812820 -3.430930 16.377300 -0.000001 -0.000001 1.288950 -0.892892 2.851410 6.456720 -0.000001 -0.000000 -4.197740 -3.728420 0.341433 12.994200 -0.242716 4.980390 -87.755800 -4.904330 -65.374800 5.348090 -0.000007 -0.000001 -61.206400 6.339960 27.020200 24.328600 0.000019 0.000005 15.948000 18.948600 -41.347600 22.291600 -0.000001 0.000005 7.595330 5.521460 -7.424960 12.994500 -0.242716 -4.980390 89.678000 2.008420 -80.890500 -5.348130 -0.000001 -0.000004 -48.502600 10.831200 -40.019600 -24.328900 0.000322 -0.000009 -7.454480 0.143007 -91.089800 -22.291500 -0.000108 -0.000004 14.011100 5.564920 -9.428530 -2.192480 -6.469440 -0.000000 174.728000 -1.344320 -54.878300 39.081100 -0.000007 -0.000012 0.165061 -0.067688 67.700900 40.985400 -0.000006 -0.000013 6.974920 -0.808435 -63.400300 11.754300 -0.000000 0.000003 -0.003143 -0.042211 -18.293500 -2.192510 6.469440 -0.000001 162.654000 18.257200 -172.949000 -39.081100 -0.002282 -0.040193 0.162417 -0.288903 28.843900 -40.985400 0.000008 0.000006 -2.262910 15.318600 -32.195200 -11.754300 -0.000006 -0.000006 -0.054016 -0.311802 -29.429200
0.000000 0.000000 0.000000 0.000000 0.000000 -0.000000 -1.660390 91.815800 27.102100 -89.878000 13.878400 170.754000 15.735700 0.000005 -0.000001 128.245000 82.132000 -129.595000 8.984550 -0.406207 -0.000000 4.764900 9.758700 -3.107900 16.377300 -0.000001 -0.000001 2.135550 -1.265400 2.491060 6.456720 -0.000001 -0.000000 -3.789230 -4.781130 0.987169 12.994200 -0.242716 4.980390 -87.490400 -5.405140 -65.047800 5.348090 -0.000007 -0.000001 -61.183300 3.142130 28.239900 24.328600 0.000019 0.000005 17.572400 18.317300 -45.218400 22.291600 -0.000001 0.000005 6.996490 5.495730 -6.361240 12.994500 -0.242716 -4.980390 89.703000 1.863430 -80.943000 -5.348130 -0.000001 -0.000004 -47.881800 13.774300 -37.042400 -24.328900 0.000322 -0.000009 -6.856120 -0.093133 -89.219500 -22.291500 -0.000108 -0.000004 13.641000 5.562730 -9.321290 -2.192480 -6.469440 -0.000000 177.542000 -4.641650 -47.708800 39.081100 -0.000007 -0.000012 0.034998 -0.036747 43.601200 40.985400 -0.000006 -0.000013 2.664570 4.694790 -69.000200 11.754300 -0.000000 0.000003 -0.003149 -0.042282 -18.296400 -2.192510 6.469440 -0.000001 160.469000 20.916000 -169.158000 -39.081100 -0.002282 -0.040193 0.268281 -0.410576 32.838500 -40.985400 0.000008 0.000006 -1.688540 14.188300 -31.242500 -11.754300 -0.000006 -0.000006 -0.014213 -0.132800 -21.990100
0.000000 0.000000 0.000000 0.000000 0.000000 -0.000000 -0.955317 91.627500 14.820500 -86.603100 15.260800 171.821000 15.735700 0.000005 -0.000001 131.094000 81.402300 -131.844000 8.984550 -0.406207 -0.000000 5.350000 11.293600 -2.031930 16.377300 -0.000001 -0.000001 2.258810 -1.005220 2.048290 6.456720 -0.000001 -0.000000 -3.130520 -5.461020 1.565750 12.994200 -0.242716 4.980390 -87.820400 -4.558590 -64.410500 5.348090 -0.000007 -0.000001 -61.197300 0.680033 26.919200 24.328600 0.000019 0.000005 18.532200 17.625800 -47.908600 22.291600 -0.000001 0.000005 7.605360 5.477320 -5.646000 12.994500 -0.242716 -4.980390 89.697000 1.897420 -80.924100 -5.348130 -0.000001 -0.000004 -48.775900 16.898000 -32.566300 -24.328900 0.000322 -0.000009 -5.512320 -0.426273 -85.582900 -22.291500 -0.000108 -0.000004 13.918500 5.560550 -9.215290 -2.192480 -6.469440 -0.000000 -179.854000 -10.442400 -39.495000 39.081100 -0.000007 -0.000012 -0.033159 0.077579 23.143000 40.985400 -0.000006 -0.000013 0.644081 7.229500 -73.667700 11.754300 -0.000000 0.000003 -0.004095 -0.052434 -18.709700 -2.192510 6.469440 -0.000001 163.994000 13.450200 -166.973000 -39.081100 -0.002282 -0.040193 0.343646 -0.403803 40.128300 -40.985400 0.000008 0.000006 -0.783574 6.423290 -29.554500 -11.754300 -0.000006 -0.000006 -0.013824 -0.130280 -21.886700
